<svg xmlns="http://www.w3.org/2000/svg" xmlns:xlink="http://www.w3.org/1999/xlink" xmlns:lucid="lucid" width="1760" height="1360"><g transform="translate(0 0)" lucid:page-tab-id="3DQAATIJAIro"><path d="M0 0h1760v1360H0z" fill="#fff"/><g opacity=".66"><path d="M20 29c0-4.97 4.03-9 9-9h832c4.97 0 9 4.03 9 9v182c0 4.97-4.03 9-9 9H29c-4.97 0-9-4.03-9-9z" fill-opacity="0"/><path d="M48.8 20h19.82m9.9 0h19.8m9.92 0h19.8m9.9 0h19.82m9.9 0h19.82m9.9 0h19.8m9.92 0h19.8m9.9 0h19.82m9.9 0h19.8m9.92 0h19.8m9.9 0h19.82m9.9 0h19.82m9.9 0h19.8m9.92 0h19.8m9.9 0h19.82m9.9 0h19.8m9.92 0h19.8m9.9 0h19.82m9.9 0h19.82m9.9 0h19.8m9.92 0h19.8m9.9 0h19.82m9.9 0h19.8m9.92 0h19.8m9.9 0h19.82m9.9 0h19.82m9.9 0h19.8m9.92 0h9.9l3.14.56 2.66 1.56 1.97 2.34 1.08 2.92L870 29v10.1m0 10.12v20.22m0 10.12v20.22m0 10.1v20.23m0 10.12v20.22m0 10.12v20.22m0 10.1V211l-.56 3.14-1.56 2.66-2.34 1.97-2.92 1.08-1.62.15h-9.9m-9.9 0h-19.82m-9.9 0h-19.8m-9.92 0h-19.8m-9.9 0h-19.82m-9.9 0H702.5m-9.9 0h-19.8m-9.92 0h-19.8m-9.9 0h-19.82m-9.9 0h-19.8m-9.92 0h-19.8m-9.9 0h-19.82m-9.9 0H494.5m-9.9 0h-19.8m-9.92 0h-19.8m-9.9 0h-19.82m-9.9 0h-19.8m-9.92 0h-19.8m-9.9 0h-19.82m-9.9 0H286.5m-9.9 0h-19.8m-9.92 0h-19.8m-9.9 0h-19.82m-9.9 0h-19.8m-9.92 0h-19.8m-9.9 0h-19.82m-9.9 0H78.5m-9.9 0h-19.8m-9.92 0H29l-3.14-.56-2.66-1.56-1.97-2.34-1.08-2.92L20 211v-10.1m0-10.12v-20.22m0-10.12v-20.22m0-10.1v-20.23m0-10.12V79.56m0-10.12V49.22m0-10.1V29l.56-3.14 1.56-2.66 2.34-1.97 2.92-1.08L29 20h9.9" stroke="#666" stroke-width="2" fill="none"/></g><g filter="url(#a)"><path d="M263 90c0-5.52 4.48-10 10-10h140c5.52 0 10 4.48 10 10v100c0 5.52-4.48 10-10 10H273c-5.52 0-10-4.48-10-10z" stroke="#000" stroke-width="2" fill="#c1e4f7"/><use xlink:href="#b" transform="matrix(1,0,0,1,268,85) translate(38.911111111111104 47.266666666666666)"/><use xlink:href="#c" transform="matrix(1,0,0,1,268,85) translate(29.5 71.8)"/><use xlink:href="#d" transform="matrix(1,0,0,1,268,85) translate(98.27777777777779 71.8)"/></g><g filter="url(#a)"><path d="M57 90c0-5.52 4.48-10 10-10h140c5.52 0 10 4.48 10 10v100c0 5.52-4.48 10-10 10H67c-5.52 0-10-4.48-10-10z" stroke="#000" stroke-width="2" fill="#c1e4f7"/><use xlink:href="#e" transform="matrix(1,0,0,1,62,85) translate(38.911111111111104 47.266666666666666)"/><use xlink:href="#c" transform="matrix(1,0,0,1,62,85) translate(29.5 71.8)"/><use xlink:href="#f" transform="matrix(1,0,0,1,62,85) translate(98.27777777777779 71.8)"/></g><g filter="url(#a)"><path d="M469 90c0-5.52 4.48-10 10-10h140c5.52 0 10 4.48 10 10v100c0 5.52-4.48 10-10 10H479c-5.52 0-10-4.48-10-10z" stroke="#000" stroke-width="2" fill="#c1e4f7"/><use xlink:href="#e" transform="matrix(1,0,0,1,474,85) translate(38.911111111111104 47.266666666666666)"/><use xlink:href="#c" transform="matrix(1,0,0,1,474,85) translate(29.5 71.8)"/><use xlink:href="#g" transform="matrix(1,0,0,1,474,85) translate(98.27777777777779 71.8)"/></g><g filter="url(#a)"><path d="M676 90c0-5.52 4.48-10 10-10h140c5.52 0 10 4.48 10 10v100c0 5.52-4.48 10-10 10H686c-5.52 0-10-4.48-10-10z" stroke="#000" stroke-width="2" fill="#c1e4f7"/><use xlink:href="#b" transform="matrix(1,0,0,1,681,85) translate(38.911111111111104 47.266666666666666)"/><use xlink:href="#c" transform="matrix(1,0,0,1,681,85) translate(29.5 71.8)"/><use xlink:href="#h" transform="matrix(1,0,0,1,681,85) translate(98.27777777777779 71.8)"/></g><g filter="url(#i)"><path d="M340 280h200v120c-33.4-20.04-54.2-20.04-66.8-20.04-20 0-46.6 20.04-66.6 20.04-12.4 0-33.4 0-66.6-20.04z" stroke="#000" stroke-width="2" fill="#fff"/><use xlink:href="#j" transform="matrix(1,0,0,1,345,285) translate(13.024691358024697 49.44444444444444)"/><use xlink:href="#k" transform="matrix(1,0,0,1,345,285) translate(57.40740740740741 49.44444444444444)"/><use xlink:href="#l" transform="matrix(1,0,0,1,345,285) translate(164.62962962962962 49.44444444444444)"/></g><path d="M137 201l185.02 72.5" stroke="#000" stroke-width="2" fill="none"/><path d="M137.36 200.07l-.72 1.86-2.8-1.1.33-.83h3.02zM336 278.97l-15-.9 3.4-8.62z"/><path d="M339 280.15L319.58 279l4.4-11.2zm-16.55-3l10.52.64-8.15-6.7z"/><path d="M343 201l52.14 63.87" stroke="#000" stroke-width="2" fill="none"/><path d="M343.77 200.37l-1.54 1.26-1.34-1.63h2.57zM404.62 276.5l-12.6-8.13 7.17-5.86z"/><path d="M406.67 279l-16.36-10.53 9.32-7.6zm-12.96-10.72l8.87 5.7-3.8-9.82z"/><path d="M549 201l-62.97 64.9" stroke="#000" stroke-width="2" fill="none"/><path d="M549.72 201.7l-1.44-1.4.3-.3h2.78zM488.85 269.67l-13.26 7 6.6-13.46z"/><path d="M490.53 269.9l-17.2 9.1 8.57-17.47zm-12.7 4.45l9.33-4.93-4.68-4.53z"/><path d="M756 201l-197.9 72.85" stroke="#000" stroke-width="2" fill="none"/><path d="M759.16 200.9l-2.8 1.04-.7-1.88.16-.06h3zM559.03 278.45l-15 .58 11.8-9.28z"/><path d="M560.44 279.4l-19.44.75 15.3-12.04zm-13.37-1.5l10.54-.4-2.24-6.1z"/><path d="M20 20h128v60H20z" stroke="#000" stroke-opacity="0" stroke-width="2" fill="#fff" fill-opacity="0"/><use xlink:href="#m" transform="matrix(1,0,0,1,25,25) translate(24.574999999999996 28.6)"/><defs><path d="M240-174c0 40-23 61-54 70L253 0h-59l-57-94H76V0H24v-248c93 4 217-23 216 74zM76-134c48-2 112 12 112-38 0-48-66-32-112-35v73" id="n"/><path d="M185-48c-13 30-37 53-82 52C43 2 14-33 14-96s30-98 90-98c62 0 83 45 84 108H66c0 31 8 55 39 56 18 0 30-7 34-22zm-45-69c5-46-57-63-70-21-2 6-4 13-4 21h74" id="o"/><path d="M133-34C117-15 103 5 69 4 32 3 11-16 11-54c-1-60 55-63 116-61 1-26-3-47-28-47-18 1-26 9-28 27l-52-2c7-38 36-58 82-57s74 22 75 68l1 82c-1 14 12 18 25 15v27c-30 8-71 5-69-32zm-48 3c29 0 43-24 42-57-32 0-66-3-65 30 0 17 8 27 23 27" id="p"/><path d="M88-194c31-1 46 15 58 34l-1-101h50l1 261h-48c-2-10 0-23-3-31C134-8 116 4 84 4 32 4 16-41 15-95c0-56 19-97 73-99zm17 164c33 0 40-30 41-66 1-37-9-64-41-64s-38 30-39 65c0 43 13 65 39 65" id="q"/><path d="M135-150c-39-12-60 13-60 57V0H25l-1-190h47c2 13-1 29 3 40 6-28 27-53 61-41v41" id="r"/><g id="b"><use transform="matrix(0.05925925925925927,0,0,0.05925925925925927,0,0)" xlink:href="#n"/><use transform="matrix(0.05925925925925927,0,0,0.05925925925925927,15.34814814814815,0)" xlink:href="#o"/><use transform="matrix(0.05925925925925927,0,0,0.05925925925925927,27.200000000000003,0)" xlink:href="#p"/><use transform="matrix(0.05925925925925927,0,0,0.05925925925925927,39.05185185185186,0)" xlink:href="#q"/><use transform="matrix(0.05925925925925927,0,0,0.05925925925925927,52.02962962962964,0)" xlink:href="#o"/><use transform="matrix(0.05925925925925927,0,0,0.05925925925925927,63.881481481481494,0)" xlink:href="#r"/></g><path fill="#666" d="M151-220L108 0H75l42-220H32l6-28h203l-5 28h-85" id="s"/><path fill="#666" d="M67-158c15-20 31-36 64-36 94 0 33 127 27 194h-32l25-140c3-38-53-32-70-12C52-117 51-51 37 0H6l51-261h31" id="t"/><path fill="#666" d="M66-151c12-25 30-51 66-40l-6 26C45-176 58-65 38 0H6l36-190h30" id="u"/><path fill="#666" d="M111-194c62-3 86 47 72 106H45c-7 38 6 69 45 68 27-1 43-14 53-32l24 11C152-15 129 4 87 4 38 3 12-23 12-71c0-70 32-119 99-123zm44 81c14-66-71-72-95-28-4 8-8 17-11 28h106" id="v"/><path fill="#666" d="M165-48c-4 18 1 34 23 27l-3 20c-29 8-62 0-52-35h-2C116-14 99 4 63 4 30 4 8-16 8-49c0-68 71-67 138-67 10-26 0-56-31-54-26 1-42 9-47 31l-32-5c8-67 160-71 144 15-5 28-9 54-15 81zM42-50c3 52 80 24 89-6 7-12 7-24 11-38-47 1-103-4-100 44" id="w"/><path fill="#666" d="M133-28C103 26-5 8 13-77c13-62 24-115 90-117 29-1 46 15 56 35l19-102h32L160 0h-30zM45-64c-2 27 10 43 35 43 54-1 69-50 69-103 0-29-15-46-42-46-53-1-58 58-62 106" id="x"/><g id="c"><use transform="matrix(0.05555555555555555,0,0,0.05555555555555555,0,0)" xlink:href="#s"/><use transform="matrix(0.05555555555555555,0,0,0.05555555555555555,12.166666666666666,0)" xlink:href="#t"/><use transform="matrix(0.05555555555555555,0,0,0.05555555555555555,23.27777777777778,0)" xlink:href="#u"/><use transform="matrix(0.05555555555555555,0,0,0.05555555555555555,29.888888888888886,0)" xlink:href="#v"/><use transform="matrix(0.05555555555555555,0,0,0.05555555555555555,41,0)" xlink:href="#w"/><use transform="matrix(0.05555555555555555,0,0,0.05555555555555555,52.111111111111114,0)" xlink:href="#x"/></g><path fill="#666" d="M163-156l-14 65h46v19h-50L130 0h-20l15-72H62L47 0H27l15-72H7v-19h39l14-65H16v-19h48l16-71h19l-16 71h64l16-71h19l-15 71h37v19h-41zm-83 0L66-91h64l13-65H80" id="y"/><path fill="#666" d="M148-71c0-36-31-44-71-41l5-28c46 3 81-6 81-50 0-23-15-35-39-35-30 0-49 17-56 41l-32-3c12-39 42-63 90-64 43 0 69 19 71 60 1 43-30 58-65 66 27 5 49 22 49 53 0 85-133 99-164 35-4-7-7-15-9-22l29-9c8 25 25 45 58 45 34 1 53-17 53-48" id="z"/><g id="d"><use transform="matrix(0.05555555555555555,0,0,0.05555555555555555,0,0)" xlink:href="#y"/><use transform="matrix(0.05555555555555555,0,0,0.05555555555555555,11.11111111111111,0)" xlink:href="#z"/></g><filter id="a" filterUnits="objectBoundingBox" x="-.06" y="-.03" width="1.13" height="1.17"><feOffset result="offOut" in="SourceAlpha" dy="6"/><feGaussianBlur result="blurOut" in="offOut" stdDeviation="5"/><feColorMatrix result="colorOut" in="blurOut" values="0 0 0 0 0 0 0 0 0 0 0 0 0 0 0 0 0 0 0.5019607843137255 0"/><feBlend in="SourceGraphic" in2="colorOut"/></filter><g id="e"><use transform="matrix(0.05925925925925927,0,0,0.05925925925925927,0,0)" xlink:href="#n"/><use transform="matrix(0.05925925925925927,0,0,0.05925925925925927,15.34814814814815,0)" xlink:href="#o"/><use transform="matrix(0.05925925925925927,0,0,0.05925925925925927,27.200000000000003,0)" xlink:href="#p"/><use transform="matrix(0.05925925925925927,0,0,0.05925925925925927,39.05185185185186,0)" xlink:href="#q"/><use transform="matrix(0.05925925925925927,0,0,0.05925925925925927,52.02962962962964,0)" xlink:href="#o"/><use transform="matrix(0.05925925925925927,0,0,0.05925925925925927,63.881481481481494,0)" xlink:href="#r"/></g><path fill="#666" d="M149-56L138 0h-32l11-56H2l5-25 144-167h35L154-81h33l-5 25h-33zm-4-147L40-81h82" id="A"/><g id="f"><use transform="matrix(0.05555555555555555,0,0,0.05555555555555555,0,0)" xlink:href="#y"/><use transform="matrix(0.05555555555555555,0,0,0.05555555555555555,11.11111111111111,0)" xlink:href="#A"/></g><path fill="#666" d="M123-251c66 0 92 69 53 113C138-94 73-75 39-27h128l-5 27H-2c17-92 123-93 159-163 14-28-1-64-36-62-29 2-46 17-54 41l-30-6c13-36 37-61 86-61" id="B"/><g id="g"><use transform="matrix(0.05555555555555555,0,0,0.05555555555555555,0,0)" xlink:href="#y"/><use transform="matrix(0.05555555555555555,0,0,0.05555555555555555,11.11111111111111,0)" xlink:href="#B"/></g><path fill="#666" d="M9 0l6-27h63l36-188-63 39 6-31 66-41h29L110-27h60l-5 27H9" id="C"/><g id="h"><use transform="matrix(0.05555555555555555,0,0,0.05555555555555555,0,0)" xlink:href="#y"/><use transform="matrix(0.05555555555555555,0,0,0.05555555555555555,11.11111111111111,0)" xlink:href="#C"/></g><path d="M76-208v77h127v40H76V0H24v-248h183v40H76" id="D"/><path d="M25-224v-37h50v37H25zM25 0v-190h50V0H25" id="E"/><path d="M25 0v-261h50V0H25" id="F"/><g id="j"><use transform="matrix(0.06172839506172839,0,0,0.06172839506172839,0,0)" xlink:href="#D"/><use transform="matrix(0.06172839506172839,0,0,0.06172839506172839,13.518518518518517,0)" xlink:href="#E"/><use transform="matrix(0.06172839506172839,0,0,0.06172839506172839,19.691358024691358,0)" xlink:href="#F"/><use transform="matrix(0.06172839506172839,0,0,0.06172839506172839,25.864197530864196,0)" xlink:href="#o"/></g><path d="M137-138c1-29-70-34-71-4 15 46 118 7 119 86 1 83-164 76-172 9l43-7c4 19 20 25 44 25 33 8 57-30 24-41C81-84 22-81 20-136c-2-80 154-74 161-7" id="G"/><path d="M110-194c64 0 96 36 96 99 0 64-35 99-97 99-61 0-95-36-95-99 0-62 34-99 96-99zm-1 164c35 0 45-28 45-65 0-40-10-65-43-65-34 0-45 26-45 65 0 36 10 65 43 65" id="H"/><path d="M85 4C-2 5 27-109 22-190h50c7 57-23 150 33 157 60-5 35-97 40-157h50l1 190h-47c-2-12 1-28-3-38-12 25-28 42-61 42" id="I"/><path d="M190-63c-7 42-38 67-86 67-59 0-84-38-90-98-12-110 154-137 174-36l-49 2c-2-19-15-32-35-32-30 0-35 28-38 64-6 74 65 87 74 30" id="J"/><g id="k"><use transform="matrix(0.06172839506172839,0,0,0.06172839506172839,0,0)" xlink:href="#n"/><use transform="matrix(0.06172839506172839,0,0,0.06172839506172839,15.987654320987653,0)" xlink:href="#o"/><use transform="matrix(0.06172839506172839,0,0,0.06172839506172839,28.333333333333332,0)" xlink:href="#G"/><use transform="matrix(0.06172839506172839,0,0,0.06172839506172839,40.67901234567901,0)" xlink:href="#H"/><use transform="matrix(0.06172839506172839,0,0,0.06172839506172839,54.19753086419753,0)" xlink:href="#I"/><use transform="matrix(0.06172839506172839,0,0,0.06172839506172839,67.71604938271605,0)" xlink:href="#r"/><use transform="matrix(0.06172839506172839,0,0,0.06172839506172839,76.35802469135803,0)" xlink:href="#J"/><use transform="matrix(0.06172839506172839,0,0,0.06172839506172839,88.70370370370371,0)" xlink:href="#o"/></g><path d="M23 0v-37h61v-169l-59 37v-38l62-41h46v211h57V0H23" id="K"/><use transform="matrix(0.06172839506172839,0,0,0.06172839506172839,0,0)" xlink:href="#K" id="l"/><filter id="i" filterUnits="objectBoundingBox" x="-.05" y="-.03" width="1.1" height="1.17"><feOffset result="offOut" in="SourceAlpha" dy="6"/><feGaussianBlur result="blurOut" in="offOut" stdDeviation="5"/><feColorMatrix result="colorOut" in="blurOut" values="0 0 0 0 0 0 0 0 0 0 0 0 0 0 0 0 0 0 0.5019607843137255 0"/><feBlend in="SourceGraphic" in2="colorOut"/></filter><path fill="#666" d="M67-125c0 54 23 88 75 88 28 0 53-7 68-21v-34h-60v-39h108v91C232-14 192 4 140 4 58 4 20-42 15-125 8-236 126-280 215-234c19 10 29 26 37 47l-47 15c-11-23-29-39-63-39-53 1-75 33-75 86" id="L"/><path fill="#666" d="M135-150c-39-12-60 13-60 57V0H25l-1-190h47c2 13-1 29 3 40 6-28 27-53 61-41v41" id="M"/><path fill="#666" d="M133-34C117-15 103 5 69 4 32 3 11-16 11-54c-1-60 55-63 116-61 1-26-3-47-28-47-18 1-26 9-28 27l-52-2c7-38 36-58 82-57s74 22 75 68l1 82c-1 14 12 18 25 15v27c-30 8-71 5-69-32zm-48 3c29 0 43-24 42-57-32 0-66-3-65 30 0 17 8 27 23 27" id="N"/><path fill="#666" d="M135-194c87-1 58 113 63 194h-50c-7-57 23-157-34-157-59 0-34 97-39 157H25l-1-190h47c2 12-1 28 3 38 12-26 28-41 61-42" id="O"/><path fill="#666" d="M115-3C79 11 28 4 28-45v-112H4v-33h27l15-45h31v45h36v33H77v99c-1 23 16 31 38 25v30" id="P"/><path fill="#666" d="M185-48c-13 30-37 53-82 52C43 2 14-33 14-96s30-98 90-98c62 0 83 45 84 108H66c0 31 8 55 39 56 18 0 30-7 34-22zm-45-69c5-46-57-63-70-21-2 6-4 13-4 21h74" id="Q"/><path fill="#666" d="M88-194c31-1 46 15 58 34l-1-101h50l1 261h-48c-2-10 0-23-3-31C134-8 116 4 84 4 32 4 16-41 15-95c0-56 19-97 73-99zm17 164c33 0 40-30 41-66 1-37-9-64-41-64s-38 30-39 65c0 43 13 65 39 65" id="R"/><g id="m"><use transform="matrix(0.05,0,0,0.05,0,0)" xlink:href="#L"/><use transform="matrix(0.05,0,0,0.05,14,0)" xlink:href="#M"/><use transform="matrix(0.05,0,0,0.05,21,0)" xlink:href="#N"/><use transform="matrix(0.05,0,0,0.05,31,0)" xlink:href="#O"/><use transform="matrix(0.05,0,0,0.05,41.95,0)" xlink:href="#P"/><use transform="matrix(0.05,0,0,0.05,47.900000000000006,0)" xlink:href="#Q"/><use transform="matrix(0.05,0,0,0.05,57.900000000000006,0)" xlink:href="#R"/></g></defs></g></svg>